0
SECTION
2
HEADER
9
$INSUNITS
70
4
9
$ACADVER
1
AC1014
9
$HANDSEED
5
FFFF
0
ENDSEC
0
SECTION
2
TABLES
0
TABLE
2
VPORT
5
8
100
AcDbSymbolTable
0
ENDTAB
0
TABLE
2
LTYPE
5
5
100
AcDbSymbolTable
0
LTYPE
5
14
100
AcDbSymbolTableRecord
100
AcDbLinetypeTableRecord
2
BYBLOCK
70
0
0
LTYPE
5
15
100
AcDbSymbolTableRecord
100
AcDbLinetypeTableRecord
2
BYLAYER
70
0
0
ENDTAB
0
TABLE
2
LAYER
5
2
100
AcDbSymbolTable
70
2
0
LAYER
5
50
100
AcDbSymbolTableRecord
100
AcDbLayerTableRecord
2
0
70
0
6
CONTINUOUS
0
ENDTAB
0
TABLE
2
STYLE
5
3
100
AcDbSymbolTable
70
1
0
STYLE
5
11
100
AcDbSymbolTableRecord
100
AcDbTextStyleTableRecord
2
STANDARD
70
0
0
ENDTAB
0
TABLE
2
VIEW
5
6
100
AcDbSymbolTable
70
0
0
ENDTAB
0
TABLE
2
UCS
5
7
100
AcDbSymbolTable
70
0
0
ENDTAB
0
TABLE
2
APPID
5
9
100
AcDbSymbolTable
70
2
0
APPID
5
12
100
AcDbSymbolTableRecord
100
AcDbRegAppTableRecord
2
ACAD
70
0
0
ENDTAB
0
TABLE
2
DIMSTYLE
5
A
100
AcDbSymbolTable
70
1
0
ENDTAB
0
TABLE
2
BLOCK_RECORD
5
1
100
AcDbSymbolTable
70
1
0
BLOCK_RECORD
5
1F
100
AcDbSymbolTableRecord
100
AcDbBlockTableRecord
2
*MODEL_SPACE
0
BLOCK_RECORD
5
1B
100
AcDbSymbolTableRecord
100
AcDbBlockTableRecord
2
*PAPER_SPACE
0
ENDTAB
0
ENDSEC
0
SECTION
2
BLOCKS
0
BLOCK
5
20
100
AcDbEntity
100
AcDbBlockBegin
2
*MODEL_SPACE
0
ENDBLK
5
21
100
AcDbEntity
100
AcDbBlockEnd
0
BLOCK
5
1C
100
AcDbEntity
100
AcDbBlockBegin
2
*PAPER_SPACE
0
ENDBLK
5
1D
100
AcDbEntity
100
AcDbBlockEnd
0
ENDSEC
0
SECTION
2
ENTITIES
0
CIRCLE
5
100
100
AcDbEntity
8
0
100
AcDbCircle
10
252.45000000007653
20
29.850000000231638
30
0
40
2.2000000000000002
0
CIRCLE
5
101
100
AcDbEntity
8
0
100
AcDbCircle
10
75.177708295426697
20
88.51025475083037
30
0
40
2.2000000000000002
0
CIRCLE
5
102
100
AcDbEntity
8
0
100
AcDbCircle
10
16.103708295426706
20
-243.44474524916961
30
0
40
2.2000000000000002
0
CIRCLE
5
103
100
AcDbEntity
8
0
100
AcDbCircle
10
75.177708295426697
20
-234.48974524916963
30
0
40
2.2000000000000002
0
CIRCLE
5
104
100
AcDbEntity
8
0
100
AcDbCircle
10
247.00000000002399
20
-331.00000000024062
30
0
40
1.5874999999999999
0
CIRCLE
5
105
100
AcDbEntity
8
0
100
AcDbCircle
10
264.800000000024
20
-162.09999999999991
30
0
40
2.2000000000000002
0
CIRCLE
5
106
100
AcDbEntity
8
0
100
AcDbCircle
10
199.56999999999999
20
10.200000000240596
30
0
40
2.2000000000000002
0
LWPOLYLINE
5
107
100
AcDbEntity
8
0
100
AcDbPolyline
90
8
70
1
43
0.0
10
246.99999999998369
20
195.000000000021
42
-0.41421356237340512
10
272.00000000002399
20
170.00000000000716
10
272.00000000002399
20
-313.00000000024062
42
-0.41421356237309503
10
247.00000000002399
20
-338.00000000024062
10
-246.99999999997607
20
-338.00000000024062
42
-0.41421356237309503
10
-271.99999999997607
20
-313.00000000024068
10
-271.99999999997601
20
169.99999999949782
42
-0.41421356237278495
10
-247.00000000000247
20
194.99999999949782
0
CIRCLE
5
108
100
AcDbEntity
8
0
100
AcDbCircle
10
45.570754402956098
20
187.79999999999973
30
0
40
2.2000000000000002
0
CIRCLE
5
109
100
AcDbEntity
8
0
100
AcDbCircle
10
-13.896291704573294
20
-304.54474524916964
30
0
40
2.2000000000000002
0
CIRCLE
5
110
100
AcDbEntity
8
0
100
AcDbCircle
10
105.27820829542671
20
88.51025475083037
30
0
40
2.2000000000000002
0
CIRCLE
5
111
100
AcDbEntity
8
0
100
AcDbCircle
10
45.570754402956098
20
187.79999999999973
30
0
40
2.3000000000000043
0
CIRCLE
5
112
100
AcDbEntity
8
0
100
AcDbCircle
10
105.27770829542672
20
-234.48974524916963
30
0
40
2.2000000000000002
0
CIRCLE
5
113
100
AcDbEntity
8
0
100
AcDbCircle
10
264.800000000024
20
-140.89999999999992
30
0
40
2.2000000000000002
0
ELLIPSE
5
114
100
AcDbEntity
8
0
100
AcDbEllipse
10
161.06994500518962
20
70.727198465878416
30
0
11
-2.3000000000000007
21
-3.8300575317498801e-16
31
0.0
40
0.95652173913043459
41
0
42
6.2831853071795862
0
ELLIPSE
5
115
100
AcDbEntity
8
0
100
AcDbEllipse
10
161.06994500518863
20
176.70000000258733
30
0
11
3.8300343447564202e-16
21
-2.2999999997156957
31
0.0
40
0.95652173924866335
41
-1.5707963267948966
42
4.7123889803846897
0
CIRCLE
5
116
100
AcDbEntity
8
0
100
AcDbCircle
10
-13.896291704573294
20
-243.44474524916961
30
0
40
2.2000000000000002
0
CIRCLE
5
117
100
AcDbEntity
8
0
100
AcDbCircle
10
16.103708295426706
20
-304.54474524916964
30
0
40
2.2000000000000002
0
CIRCLE
5
118
100
AcDbEntity
8
0
100
AcDbCircle
10
248.70000000002267
20
10.2000000002406
30
0
40
2.2000000000000002
0
CIRCLE
5
119
100
AcDbEntity
8
0
100
AcDbCircle
10
-264.79999999997608
20
-162.09999999999991
30
0
40
2.2000000000000002
0
CIRCLE
5
120
100
AcDbEntity
8
0
100
AcDbCircle
10
265.00000000002399
20
-313.00000000024062
30
0
40
1.5874999999999999
0
ARC
5
121
100
AcDbEntity
8
0
100
AcDbCircle
10
-34.269692140412637
20
147.54474159470482
30
0
40
2.4411899999999989
100
AcDbArc
50
-0.020029400921371572
51
180.01963215183358
0
CIRCLE
5
122
100
AcDbEntity
8
0
100
AcDbCircle
10
-248.70000000002278
20
10.200000000240596
30
0
40
2.2000000000000002
0
CIRCLE
5
123
100
AcDbEntity
8
0
100
AcDbCircle
10
-205.29999999986882
20
176.700000000317
30
0
40
2.2000000000000002
0
LINE
5
124
100
AcDbEntity
8
0
100
AcDbLine
10
-31.830599464304441
20
141.54474442512407
30
0
11
-31.828502289576022
21
147.54388820597978
31
0
0
CIRCLE
5
125
100
AcDbEntity
8
0
100
AcDbCircle
10
-89.883245597043924
20
187.79999999999984
30
0
40
2.2000000000000002
0
CIRCLE
5
126
100
AcDbEntity
8
0
100
AcDbCircle
10
-246.99999999997607
20
-331.00000000024062
30
0
40
1.5874999999999999
0
CIRCLE
5
127
100
AcDbEntity
8
0
100
AcDbCircle
10
-205.3000000000244
20
70.727000000327237
30
0
40
2.2000000000000002
0
CIRCLE
5
128
100
AcDbEntity
8
0
100
AcDbCircle
10
-99.946291704573298
20
-304.50024524916967
30
0
40
2.2000000000000002
0
ARC
5
129
100
AcDbEntity
8
0
100
AcDbCircle
10
-34.27074080283419
20
141.54474436644813
30
0
40
2.4401413385297408
100
AcDbArc
50
-180.00000120741828
51
1.2074182697257333e-06
0
CIRCLE
5
130
100
AcDbEntity
8
0
100
AcDbCircle
10
-69.868291704573295
20
163.50125475083036
30
0
40
2.2000000000000002
0
CIRCLE
5
131
100
AcDbEntity
8
0
100
AcDbCircle
10
-69.846291704573304
20
-304.50024524916967
30
0
40
2.2000000000000002
0
CIRCLE
5
132
100
AcDbEntity
8
0
100
AcDbCircle
10
-264.80000047685854
20
-140.89999999999992
30
0
40
2.2000000000000002
0
CIRCLE
5
133
100
AcDbEntity
8
0
100
AcDbCircle
10
-99.968291704573303
20
163.50125475083036
30
0
40
2.2000000000000002
0
CIRCLE
5
134
100
AcDbEntity
8
0
100
AcDbCircle
10
-89.883245597043924
20
187.79999999999984
30
0
40
2.3000000000000047
0
CIRCLE
5
135
100
AcDbEntity
8
0
100
AcDbCircle
10
-184.80000000002278
20
10.200000000240596
30
0
40
2.2000000000000002
0
CIRCLE
5
136
100
AcDbEntity
8
0
100
AcDbCircle
10
-264.99999999997607
20
-313.00000000024062
30
0
40
1.5874999999999999
0
LINE
5
137
100
AcDbEntity
8
0
100
AcDbLine
10
-36.710881997107379
20
147.54390513149212
30
0
11
-36.710882141363932
21
141.54474442512407
31
0
0
CIRCLE
5
138
100
AcDbEntity
8
0
100
AcDbCircle
10
39.047444999999982
20
-250.30545199999995
30
0
40
1.3591540000000182
0
CIRCLE
5
139
100
AcDbEntity
8
0
100
AcDbCircle
10
39.047444999999982
20
-244.50545199999996
30
0
40
1.3591540000000182
0
CIRCLE
5
140
100
AcDbEntity
8
0
100
AcDbCircle
10
89.047444999999996
20
-250.30545199999995
30
0
40
1.3591540000000182
0
CIRCLE
5
141
100
AcDbEntity
8
0
100
AcDbCircle
10
89.047444999999996
20
-244.50545199999996
30
0
40
1.3591540000000182
0
CIRCLE
5
142
100
AcDbEntity
8
0
100
AcDbCircle
10
127.04744499999995
20
-214.50545200000005
30
0
40
1.3591540000000184
0
CIRCLE
5
143
100
AcDbEntity
8
0
100
AcDbCircle
10
132.84744499999994
20
-214.50545200000005
30
0
40
1.3591540000000184
0
CIRCLE
5
144
100
AcDbEntity
8
0
100
AcDbCircle
10
138.24744499999994
20
-219.50545200000005
30
0
40
1.3591540000000184
0
CIRCLE
5
145
100
AcDbEntity
8
0
100
AcDbCircle
10
144.04744499999993
20
-219.50545200000005
30
0
40
1.3591540000000184
0
CIRCLE
5
146
100
AcDbEntity
8
0
100
AcDbCircle
10
138.24744499999994
20
-141.00545200000002
30
0
40
1.3591540000000184
0
CIRCLE
5
147
100
AcDbEntity
8
0
100
AcDbCircle
10
144.04744499999993
20
-141.00545200000002
30
0
40
1.3591540000000184
0
CIRCLE
5
148
100
AcDbEntity
8
0
100
AcDbCircle
10
132.84744499999994
20
-136.00545200000002
30
0
40
1.3591540000000184
0
CIRCLE
5
149
100
AcDbEntity
8
0
100
AcDbCircle
10
127.04744499999995
20
-136.00545200000002
30
0
40
1.3591540000000184
0
CIRCLE
5
150
100
AcDbEntity
8
0
100
AcDbCircle
10
127.04744499999995
20
-57.50545200000002
30
0
40
1.3591540000000184
0
CIRCLE
5
151
100
AcDbEntity
8
0
100
AcDbCircle
10
132.84744499999994
20
-57.50545200000002
30
0
40
1.3591540000000184
0
CIRCLE
5
152
100
AcDbEntity
8
0
100
AcDbCircle
10
144.04744499999993
20
-62.50545200000002
30
0
40
1.3591540000000184
0
CIRCLE
5
153
100
AcDbEntity
8
0
100
AcDbCircle
10
138.24744499999994
20
-62.50545200000002
30
0
40
1.3591540000000184
0
CIRCLE
5
154
100
AcDbEntity
8
0
100
AcDbCircle
10
138.24744499999994
20
16.24454799999998
30
0
40
1.3591540000000184
0
CIRCLE
5
155
100
AcDbEntity
8
0
100
AcDbCircle
10
132.84744499999994
20
21.24454799999998
30
0
40
1.3591540000000184
0
CIRCLE
5
156
100
AcDbEntity
8
0
100
AcDbCircle
10
127.04744499999995
20
21.24454799999998
30
0
40
1.3591540000000184
0
CIRCLE
5
157
100
AcDbEntity
8
0
100
AcDbCircle
10
144.04744499999993
20
16.24454799999998
30
0
40
1.3591540000000184
0
CIRCLE
5
158
100
AcDbEntity
8
0
100
AcDbCircle
10
64.047444999999897
20
42.99454799999998
30
0
40
1.3591540000000188
0
CIRCLE
5
159
100
AcDbEntity
8
0
100
AcDbCircle
10
64.047444999999897
20
37.194547999999998
30
0
40
1.3591540000000188
0
CIRCLE
5
160
100
AcDbEntity
8
0
100
AcDbCircle
10
64.047444999999897
20
-22.905452000000022
30
0
40
1.3591540000000188
0
CIRCLE
5
161
100
AcDbEntity
8
0
100
AcDbCircle
10
64.047444999999897
20
-17.105452000000039
30
0
40
1.3591540000000188
0
CIRCLE
5
162
100
AcDbEntity
8
0
100
AcDbCircle
10
-35.95255500000011
20
-22.905452000000022
30
0
40
1.3591540000000188
0
CIRCLE
5
163
100
AcDbEntity
8
0
100
AcDbCircle
10
-35.95255500000011
20
37.194547999999998
30
0
40
1.3591540000000188
0
CIRCLE
5
164
100
AcDbEntity
8
0
100
AcDbCircle
10
-35.95255500000011
20
42.99454799999998
30
0
40
1.3591540000000188
0
CIRCLE
5
165
100
AcDbEntity
8
0
100
AcDbCircle
10
-35.95255500000011
20
-17.105452000000039
30
0
40
1.3591540000000188
0
CIRCLE
5
166
100
AcDbEntity
8
0
100
AcDbCircle
10
-135.95255500000013
20
37.194547999999998
30
0
40
1.3591540000000188
0
CIRCLE
5
167
100
AcDbEntity
8
0
100
AcDbCircle
10
-135.95255500000013
20
-22.905452000000022
30
0
40
1.3591540000000188
0
CIRCLE
5
168
100
AcDbEntity
8
0
100
AcDbCircle
10
-135.95255500000013
20
42.99454799999998
30
0
40
1.3591540000000188
0
CIRCLE
5
169
100
AcDbEntity
8
0
100
AcDbCircle
10
-135.95255500000013
20
-17.105452000000039
30
0
40
1.3591540000000188
0
CIRCLE
5
170
100
AcDbEntity
8
0
100
AcDbCircle
10
104.79744499999998
20
97.644548000000015
30
0
40
1.3591540000000188
0
CIRCLE
5
171
100
AcDbEntity
8
0
100
AcDbCircle
10
109.79744499999998
20
108.844548
30
0
40
1.3591540000000188
0
CIRCLE
5
172
100
AcDbEntity
8
0
100
AcDbCircle
10
104.79744499999998
20
103.444548
30
0
40
1.3591540000000188
0
CIRCLE
5
173
100
AcDbEntity
8
0
100
AcDbCircle
10
109.79744499999998
20
117.444548
30
0
40
1.3591540000000188
0
CIRCLE
5
174
100
AcDbEntity
8
0
100
AcDbCircle
10
29.797444999999989
20
117.444548
30
0
40
1.3591540000000188
0
CIRCLE
5
175
100
AcDbEntity
8
0
100
AcDbCircle
10
24.797444999999989
20
103.444548
30
0
40
1.3591540000000188
0
CIRCLE
5
176
100
AcDbEntity
8
0
100
AcDbCircle
10
29.797444999999989
20
108.844548
30
0
40
1.3591540000000188
0
CIRCLE
5
177
100
AcDbEntity
8
0
100
AcDbCircle
10
24.797444999999989
20
97.644548000000015
30
0
40
1.3591540000000188
0
CIRCLE
5
178
100
AcDbEntity
8
0
100
AcDbCircle
10
-8.8525549999999971
20
64.994547999999966
30
0
40
1.3591540000000191
0
CIRCLE
5
179
100
AcDbEntity
8
0
100
AcDbCircle
10
10.947444999999988
20
59.994547999999959
30
0
40
1.3591540000000191
0
CIRCLE
5
180
100
AcDbEntity
8
0
100
AcDbCircle
10
5.1474450000000065
20
59.994547999999959
30
0
40
1.3591540000000191
0
CIRCLE
5
181
100
AcDbEntity
8
0
100
AcDbCircle
10
-0.25255500000000319
20
64.994547999999966
30
0
40
1.3591540000000191
0
CIRCLE
5
182
100
AcDbEntity
8
0
100
AcDbCircle
10
266.00000000002399
20
-49.999999850988381
30
0
40
2.2000000000000002
0
CIRCLE
5
183
100
AcDbEntity
8
0
100
AcDbCircle
10
244.00000000002399
20
-49.999999850988381
30
0
40
2.2000000000000002
0
ENDSEC
0
SECTION
2
OBJECTS
0
DICTIONARY
5
C
100
AcDbDictionary
3
ACAD_GROUP
350
D
3
ACAD_MLINESTYLE
350
17
0
DICTIONARY
5
D
100
AcDbDictionary
0
DICTIONARY
5
1A
330
C
100
AcDbDictionary
0
DICTIONARY
5
17
100
AcDbDictionary
0
ENDSEC
0
EOF
