0
SECTION
2
HEADER
9
$INSUNITS
70
4
9
$ACADVER
1
AC1014
9
$HANDSEED
5
FFFF
0
ENDSEC
0
SECTION
2
TABLES
0
TABLE
2
VPORT
5
8
100
AcDbSymbolTable
0
ENDTAB
0
TABLE
2
LTYPE
5
5
100
AcDbSymbolTable
0
LTYPE
5
14
100
AcDbSymbolTableRecord
100
AcDbLinetypeTableRecord
2
BYBLOCK
70
0
0
LTYPE
5
15
100
AcDbSymbolTableRecord
100
AcDbLinetypeTableRecord
2
BYLAYER
70
0
0
ENDTAB
0
TABLE
2
LAYER
5
2
100
AcDbSymbolTable
70
2
0
LAYER
5
50
100
AcDbSymbolTableRecord
100
AcDbLayerTableRecord
2
0
70
0
6
CONTINUOUS
0
ENDTAB
0
TABLE
2
STYLE
5
3
100
AcDbSymbolTable
70
1
0
STYLE
5
11
100
AcDbSymbolTableRecord
100
AcDbTextStyleTableRecord
2
STANDARD
70
0
0
ENDTAB
0
TABLE
2
VIEW
5
6
100
AcDbSymbolTable
70
0
0
ENDTAB
0
TABLE
2
UCS
5
7
100
AcDbSymbolTable
70
0
0
ENDTAB
0
TABLE
2
APPID
5
9
100
AcDbSymbolTable
70
2
0
APPID
5
12
100
AcDbSymbolTableRecord
100
AcDbRegAppTableRecord
2
ACAD
70
0
0
ENDTAB
0
TABLE
2
DIMSTYLE
5
A
100
AcDbSymbolTable
70
1
0
ENDTAB
0
TABLE
2
BLOCK_RECORD
5
1
100
AcDbSymbolTable
70
1
0
BLOCK_RECORD
5
1F
100
AcDbSymbolTableRecord
100
AcDbBlockTableRecord
2
*MODEL_SPACE
0
BLOCK_RECORD
5
1B
100
AcDbSymbolTableRecord
100
AcDbBlockTableRecord
2
*PAPER_SPACE
0
ENDTAB
0
ENDSEC
0
SECTION
2
BLOCKS
0
BLOCK
5
20
100
AcDbEntity
100
AcDbBlockBegin
2
*MODEL_SPACE
0
ENDBLK
5
21
100
AcDbEntity
100
AcDbBlockEnd
0
BLOCK
5
1C
100
AcDbEntity
100
AcDbBlockBegin
2
*PAPER_SPACE
0
ENDBLK
5
1D
100
AcDbEntity
100
AcDbBlockEnd
0
ENDSEC
0
SECTION
2
ENTITIES
0
LINE
5
100
100
AcDbEntity
8
0
100
AcDbLine
10
42.973752000000012
20
56.013579000000007
30
0
11
42.973752000000012
21
66.013580000000019
31
0
0
SPLINE
5
101
100
AcDbEntity
8
0
100
AcDbSpline
70
1064
71
3
72
8
73
4
74
0
42
0.000000001
43
0.0000000001
44
0.0000000001
40
0
40
0
40
0
40
0
40
1
40
1
40
1
40
1
10
525.98312800000008
20
53.953945999999995
30
0
10
524.84589600000004
20
53.954031000000015
30
0
10
523.92406099999994
20
54.876016000000007
30
0
10
523.92414000000008
20
56.013261999999997
30
0
0
SPLINE
5
102
100
AcDbEntity
8
0
100
AcDbSpline
70
1064
71
3
72
8
73
4
74
0
42
0.000000001
43
0.0000000001
44
0.0000000001
40
0
40
0
40
0
40
0
40
1
40
1
40
1
40
1
10
495.87284299999993
20
68.072904000000008
30
0
10
497.01007599999997
20
68.072817000000015
30
0
10
497.93193700000006
20
67.150834000000003
30
0
10
497.93185700000009
20
66.013593999999998
30
0
0
LINE
5
103
100
AcDbEntity
8
0
100
AcDbLine
10
73.083456000000069
20
66.013914
30
0
11
73.083456000000069
21
56.013918000000011
31
0
0
SPLINE
5
104
100
AcDbEntity
8
0
100
AcDbSpline
70
1064
71
3
72
8
73
4
74
0
42
0.000000001
43
0.0000000001
44
0.0000000001
40
0
40
0
40
0
40
0
40
1
40
1
40
1
40
1
10
54.692823999999973
20
34.793334000000002
30
0
10
57.086854000000073
20
34.793537999999998
30
0
10
59.027758000000006
20
32.62424
30
0
10
59.027996000000087
20
29.948086000000004
30
0
0
LINE
5
105
100
AcDbEntity
8
0
100
AcDbLine
10
523.92414000000008
20
56.013261999999997
30
0
11
523.92414000000008
21
66.013255000000001
31
0
0
LINE
5
106
100
AcDbEntity
8
0
100
AcDbLine
10
528.04214200000001
20
66.013255000000001
30
0
11
528.04214200000001
21
56.013261999999997
31
0
0
SPLINE
5
107
100
AcDbEntity
8
0
100
AcDbSpline
70
1064
71
3
72
8
73
4
74
0
42
0.000000001
43
0.0000000001
44
0.0000000001
40
0
40
0
40
0
40
0
40
1
40
1
40
1
40
1
10
42.973752000000012
20
56.013579000000007
30
0
10
42.973834999999987
20
54.876342000000008
30
0
10
42.051988000000016
20
53.954358999999997
30
0
10
40.914748999999979
20
53.954273999999998
30
0
0
SPLINE
5
108
100
AcDbEntity
8
0
100
AcDbSpline
70
1064
71
3
72
8
73
4
74
0
42
0.000000001
43
0.0000000001
44
0.0000000001
40
0
40
0
40
0
40
0
40
1
40
1
40
1
40
1
10
528.04214200000001
20
56.013261999999997
30
0
10
528.04222099999993
20
54.876016000000007
30
0
10
527.12038600000005
20
53.954031000000015
30
0
10
525.98312800000008
20
53.953945999999995
30
0
0
SPLINE
5
109
100
AcDbEntity
8
0
100
AcDbSpline
70
1064
71
3
72
8
73
4
74
0
42
0.000000001
43
0.0000000001
44
0.0000000001
40
0
40
0
40
0
40
0
40
1
40
1
40
1
40
1
10
525.98312800000008
20
68.072564999999997
30
0
10
527.12038600000005
20
68.072478000000004
30
0
10
528.04222099999993
20
67.150494999999992
30
0
10
528.04214200000001
20
66.013255000000001
30
0
0
SPLINE
5
110
100
AcDbEntity
8
0
100
AcDbSpline
70
1064
71
3
72
8
73
4
74
0
42
0.000000001
43
0.0000000001
44
0.0000000001
40
0
40
0
40
0
40
0
40
1
40
1
40
1
40
1
10
497.93185700000009
20
56.01359200000001
30
0
10
497.93193700000006
20
54.876352000000004
30
0
10
497.01007599999997
20
53.954371999999999
30
0
10
495.87284299999993
20
53.954287000000001
30
0
0
SPLINE
5
111
100
AcDbEntity
8
0
100
AcDbSpline
70
1064
71
3
72
8
73
4
74
0
42
0.000000001
43
0.0000000001
44
0.0000000001
40
0
40
0
40
0
40
0
40
1
40
1
40
1
40
1
10
29.306555999999944
20
29.948086000000004
30
0
10
29.306768000000005
20
32.624243
30
0
10
31.24767200000008
20
34.793535000000006
30
0
10
33.641700999999955
20
34.793334000000002
30
0
0
LINE
5
112
100
AcDbEntity
8
0
100
AcDbLine
10
493.81385599999987
20
66.013593999999998
30
0
11
493.81385599999987
21
56.01359200000001
31
0
0
LINE
5
113
100
AcDbEntity
8
0
100
AcDbLine
10
68.965454000000051
20
66.013914
30
0
11
68.965454000000051
21
56.013918000000011
31
0
0
SPLINE
5
114
100
AcDbEntity
8
0
100
AcDbSpline
70
1064
71
3
72
8
73
4
74
0
42
0.000000001
43
0.0000000001
44
0.0000000001
40
0
40
0
40
0
40
0
40
1
40
1
40
1
40
1
10
71.024452000000025
20
53.954613000000009
30
0
10
69.887211999999977
20
53.954696999999996
30
0
10
68.965363999999994
20
54.876680000000007
30
0
10
68.965454000000051
20
56.013918000000011
30
0
0
SPLINE
5
115
100
AcDbEntity
8
0
100
AcDbSpline
70
1064
71
3
72
8
73
4
74
0
42
0.000000001
43
0.0000000001
44
0.0000000001
40
0
40
0
40
0
40
0
40
1
40
1
40
1
40
1
10
38.855752000000017
20
66.013580000000019
30
0
10
38.855667000000018
20
67.150825999999995
30
0
10
39.777512999999978
20
68.072806
30
0
10
40.914752000000014
20
68.072890999999998
30
0
0
SPLINE
5
116
100
AcDbEntity
8
0
100
AcDbSpline
70
1064
71
3
72
8
73
4
74
0
42
0.000000001
43
0.0000000001
44
0.0000000001
40
0
40
0
40
0
40
0
40
1
40
1
40
1
40
1
10
493.81385599999987
20
66.013593999999998
30
0
10
493.81374999999991
20
67.150834000000003
30
0
10
494.73561100000012
20
68.072817000000015
30
0
10
495.87284299999993
20
68.072904000000008
30
0
0
SPLINE
5
117
100
AcDbEntity
8
0
100
AcDbSpline
70
1064
71
3
72
8
73
4
74
0
42
0.000000001
43
0.0000000001
44
0.0000000001
40
0
40
0
40
0
40
0
40
1
40
1
40
1
40
1
10
68.965454000000051
20
66.013914
30
0
10
68.965368999999981
20
67.151150999999999
30
0
10
69.887214999999941
20
68.073137000000003
30
0
10
71.024454999999989
20
68.07322099999999
30
0
0
SPLINE
5
118
100
AcDbEntity
8
0
100
AcDbSpline
70
1064
71
3
72
8
73
4
74
0
42
0.000000001
43
0.0000000001
44
0.0000000001
40
0
40
0
40
0
40
0
40
1
40
1
40
1
40
1
10
40.914748999999979
20
53.954273999999998
30
0
10
39.777510000000014
20
53.954358999999997
30
0
10
38.855662000000031
20
54.876342000000008
30
0
10
38.855752000000017
20
56.013579000000007
30
0
0
SPLINE
5
119
100
AcDbEntity
8
0
100
AcDbSpline
70
1064
71
3
72
8
73
4
74
0
42
0.000000001
43
0.0000000001
44
0.0000000001
40
0
40
0
40
0
40
0
40
1
40
1
40
1
40
1
10
71.024454999999989
20
68.07322099999999
30
0
10
72.161692000000073
20
68.073137000000003
30
0
10
73.083540000000056
20
67.151150999999999
30
0
10
73.083456000000069
20
66.013914
30
0
0
SPLINE
5
120
100
AcDbEntity
8
0
100
AcDbSpline
70
1064
71
3
72
8
73
4
74
0
42
0.000000001
43
0.0000000001
44
0.0000000001
40
0
40
0
40
0
40
0
40
1
40
1
40
1
40
1
10
40.914752000000014
20
68.072890999999998
30
0
10
42.051989999999968
20
68.072806
30
0
10
42.97383700000001
20
67.150825999999995
30
0
10
42.973752000000012
20
66.013580000000019
30
0
0
SPLINE
5
121
100
AcDbEntity
8
0
100
AcDbSpline
70
1064
71
3
72
8
73
4
74
0
42
0.000000001
43
0.0000000001
44
0.0000000001
40
0
40
0
40
0
40
0
40
1
40
1
40
1
40
1
10
73.083456000000069
20
56.013918000000011
30
0
10
73.083545999999984
20
54.876680000000007
30
0
10
72.161697000000061
20
53.954696999999996
30
0
10
71.024452000000025
20
53.954613000000009
30
0
0
LINE
5
122
100
AcDbEntity
8
0
100
AcDbLine
10
497.93185700000009
20
66.013593999999998
30
0
11
497.93185700000009
21
56.01359200000001
31
0
0
LINE
5
123
100
AcDbEntity
8
0
100
AcDbLine
10
54.692823999999973
20
34.793334000000002
30
0
11
33.641700999999955
21
34.793334000000002
31
0
0
LINE
5
124
100
AcDbEntity
8
0
100
AcDbLine
10
38.855752000000017
20
66.013580000000019
30
0
11
38.855752000000017
21
56.013579000000007
31
0
0
SPLINE
5
125
100
AcDbEntity
8
0
100
AcDbSpline
70
1064
71
3
72
8
73
4
74
0
42
0.000000001
43
0.0000000001
44
0.0000000001
40
0
40
0
40
0
40
0
40
1
40
1
40
1
40
1
10
59.027996000000087
20
29.948086000000004
30
0
10
59.027758000000006
20
27.271905000000004
30
0
10
57.086854000000073
20
25.102613000000002
30
0
10
54.692823999999973
20
25.102823999999998
30
0
0
SPLINE
5
126
100
AcDbEntity
8
0
100
AcDbSpline
70
1064
71
3
72
8
73
4
74
0
42
0.000000001
43
0.0000000001
44
0.0000000001
40
0
40
0
40
0
40
0
40
1
40
1
40
1
40
1
10
33.641700999999955
20
25.102823999999998
30
0
10
31.24767200000008
20
25.102613000000002
30
0
10
29.306768000000005
20
27.271931000000002
30
0
10
29.306555999999944
20
29.948086000000004
30
0
0
LINE
5
127
100
AcDbEntity
8
0
100
AcDbLine
10
54.692823999999973
20
25.102823999999998
30
0
11
33.641700999999955
21
25.102823999999998
31
0
0
SPLINE
5
128
100
AcDbEntity
8
0
100
AcDbSpline
70
1064
71
3
72
8
73
4
74
0
42
0.000000001
43
0.0000000001
44
0.0000000001
40
0
40
0
40
0
40
0
40
1
40
1
40
1
40
1
10
495.87284299999993
20
53.954287000000001
30
0
10
494.73561100000012
20
53.954371999999999
30
0
10
493.81374999999991
20
54.876352000000004
30
0
10
493.81385599999987
20
56.01359200000001
30
0
0
SPLINE
5
129
100
AcDbEntity
8
0
100
AcDbSpline
70
1064
71
3
72
8
73
4
74
0
42
0.000000001
43
0.0000000001
44
0.0000000001
40
0
40
0
40
0
40
0
40
1
40
1
40
1
40
1
10
523.92414000000008
20
66.013255000000001
30
0
10
523.92406099999994
20
67.150494999999992
30
0
10
524.84589600000004
20
68.072478000000004
30
0
10
525.98312800000008
20
68.072564999999997
30
0
0
CIRCLE
5
130
100
AcDbEntity
8
0
100
AcDbCircle
10
241.68339962451734
20
426.00000000000023
30
2.0873385769892808e-23
40
2.2000000000000002
0
ARC
5
131
100
AcDbEntity
8
0
100
AcDbCircle
10
290.28339962451736
20
428.49910264212383
30
2.0873385769892808e-23
40
2.3249999999999837
100
AcDbArc
50
-20.693541231184106
51
20.693541231189844
0
CIRCLE
5
132
100
AcDbEntity
8
0
100
AcDbCircle
10
477.29979924903466
20
38.000000000000327
30
-2.0485644857758576e-23
40
2.2000000000000002
0
CIRCLE
5
133
100
AcDbEntity
8
0
100
AcDbCircle
10
7.199799249034732
20
305.43300000000022
30
0
40
2.2000000000000002
0
LINE
5
134
100
AcDbEntity
8
0
100
AcDbLine
10
438.49979924903471
20
3.5527136788005009e-13
30
0
11
543.99979924903471
21
3.5527136788005009e-13
31
0
0
ELLIPSE
5
135
100
AcDbEntity
8
0
100
AcDbEllipse
10
110.9298542490353
20
305.100333329134
30
2.077645054185925e-23
11
-2.0727172046623087e-16
21
2.2999999999762668
31
0.0
40
0.95652173914030492
41
-1.5707963267948966
42
4.7123889803846897
0
CIRCLE
5
136
100
AcDbEntity
8
0
100
AcDbCircle
10
536.7997992489918
20
140.56700000000097
30
0
40
2.2000000000000002
0
LINE
5
137
100
AcDbEntity
8
0
100
AcDbLine
10
543.99979924903471
20
3.5527136788005009e-13
30
0
11
543.99979924903482
21
459.0000000000004
31
0
0
CIRCLE
5
138
100
AcDbEntity
8
0
100
AcDbCircle
10
10.62479924903478
20
473.37499800000052
30
2.090569751257066e-23
40
1.5874999999999999
0
LINE
5
139
100
AcDbEntity
8
0
100
AcDbLine
10
292.18339962451739
20
430.82410264212376
30
2.0873385769892808e-23
11
290.28339962451736
21
430.82410264212376
31
2.0873385769892808e-23
0
LINE
5
140
100
AcDbEntity
8
0
100
AcDbLine
10
-0.0002007509653623174
20
4.9737991503207013e-13
30
0
11
-0.0002007509653623174
21
459.00000000000057
31
0
0
CIRCLE
5
141
100
AcDbEntity
8
0
100
AcDbCircle
10
241.68339962451736
20
480.00000000000085
30
2.090569751257066e-23
40
2.2000000000000002
0
ARC
5
142
100
AcDbEntity
8
0
100
AcDbCircle
10
290.28339962451736
20
428.49910264212377
30
2.0873385769892808e-23
40
2.3250000000000171
100
AcDbArc
50
90
51
270
0
CIRCLE
5
143
100
AcDbEntity
8
0
100
AcDbCircle
10
531.29979924903478
20
7.2000000000003439
30
2.0453333115080723e-23
40
2.2000000000000002
0
LINE
5
144
100
AcDbEntity
8
0
100
AcDbLine
10
118.99979924903455
20
6.3948846218409017e-13
30
0
11
118.99979924903407
21
306.00000000000068
31
0
0
LINE
5
145
100
AcDbEntity
8
0
100
AcDbLine
10
292.18339962451739
20
426.17410264212378
30
2.0873385769892808e-23
11
292.18339962451739
21
427.67751880586616
31
2.0873385769892808e-23
0
CIRCLE
5
146
100
AcDbEntity
8
0
100
AcDbCircle
10
510.09979924903485
20
7.2000000000003439
30
2.0453333115080723e-23
40
2.2000000000000002
0
LINE
5
147
100
AcDbEntity
8
0
100
AcDbLine
10
292.18339962451739
20
430.82410264212376
30
2.0873385769892808e-23
11
292.18339962451739
21
429.32068647838173
31
2.0873385713682872e-23
0
ARC
5
148
100
AcDbEntity
8
0
100
AcDbCircle
10
123.99979924903407
20
306.00000000000068
30
0
40
5
100
AcDbArc
50
90
51
180
0
LINE
5
149
100
AcDbEntity
8
0
100
AcDbLine
10
292.18339962451739
20
429.32068647838173
30
2.0873385713682872e-23
11
292.45839962451731
21
429.32068647838173
31
2.0873385713682872e-23
0
CIRCLE
5
150
100
AcDbEntity
8
0
100
AcDbCircle
10
477.29979924903495
20
184.36666666665582
30
2.0614891828469987e-23
40
2.2000000000000002
0
CIRCLE
5
151
100
AcDbEntity
8
0
100
AcDbCircle
10
271.68339962451734
20
426.00000000000023
30
2.0873385769892808e-23
40
2.2000000000000002
0
ELLIPSE
5
152
100
AcDbEntity
8
0
100
AcDbEllipse
10
110.92985424903468
20
465.7000805012911
30
2.090569751257066e-23
11
2.3000000000000007
21
3.4360104641364151e-16
31
0.0
40
0.95652173913043459
41
0
42
6.2831853071795862
0
LINE
5
153
100
AcDbEntity
8
0
100
AcDbLine
10
292.18339962451739
20
427.67751880586616
30
2.0873385769892808e-23
11
292.45839962451737
21
427.67751880586616
31
2.0873385767553277e-23
0
CIRCLE
5
154
100
AcDbEntity
8
0
100
AcDbCircle
10
467.39979924903474
20
7.200000000000486
30
2.0453333115080723e-23
40
2.2000000000000002
0
ARC
5
155
100
AcDbEntity
8
0
100
AcDbCircle
10
24.999799249034638
20
459.00000000000057
30
0
40
25
100
AcDbArc
50
90
51
180
0
CIRCLE
5
156
100
AcDbEntity
8
0
100
AcDbCircle
10
271.68339962451739
20
480.00000000000085
30
2.090569751257066e-23
40
2.2000000000000002
0
LINE
5
157
100
AcDbEntity
8
0
100
AcDbLine
10
290.28339962451736
20
426.17410264212378
30
2.0873385769892808e-23
11
292.18339962451739
21
426.17410264212378
31
2.0873385769892808e-23
0
CIRCLE
5
158
100
AcDbEntity
8
0
100
AcDbCircle
10
446.19979924903481
20
7.200000000000486
30
2.0453333115080723e-23
40
2.2000000000000002
0
LINE
5
159
100
AcDbEntity
8
0
100
AcDbLine
10
438.49979924903494
20
306.00000000000028
30
0
11
438.49979924903471
21
3.5527136788005009e-13
31
0
0
ARC
5
160
100
AcDbEntity
8
0
100
AcDbCircle
10
518.99979924903482
20
459.0000000000004
30
0
40
25
100
AcDbArc
50
0
51
90
0
CIRCLE
5
161
100
AcDbEntity
8
0
100
AcDbCircle
10
477.29979924903495
20
465.70000000273069
30
2.090569751257066e-23
40
2.2000000000000002
0
CIRCLE
5
162
100
AcDbEntity
8
0
100
AcDbCircle
10
477.29979924903489
20
305.10033333333433
30
2.077645054185925e-23
40
2.2000000000000002
0
CIRCLE
5
163
100
AcDbEntity
8
0
100
AcDbCircle
10
536.79979924897521
20
305.43300000000067
30
0
40
2.2000000000000002
0
CIRCLE
5
164
100
AcDbEntity
8
0
100
AcDbCircle
10
533.37479924898821
20
473.3749980000004
30
2.090569751257066e-23
40
1.5874999999999999
0
ARC
5
165
100
AcDbEntity
8
0
100
AcDbCircle
10
433.49979924903465
20
306.00000000000028
30
0
40
5.0000000000002842
100
AcDbArc
50
0
51
90
0
CIRCLE
5
166
100
AcDbEntity
8
0
100
AcDbCircle
10
19.549799249034621
20
26.850000000026526
30
2.0485644857758576e-23
40
2.2000000000000002
0
LINE
5
167
100
AcDbEntity
8
0
100
AcDbLine
10
123.99979924903407
20
311.00000000000068
30
0
11
433.49979924903465
21
311.00000000000057
31
0
0
ELLIPSE
5
168
100
AcDbEntity
8
0
100
AcDbEllipse
10
110.92985424903502
20
184.36668000000071
30
2.0614891828469987e-23
11
-1.1821887818567654e-15
21
2.2999999999762668
31
0.0
40
0.95652173914030492
41
-1.5707963267948966
42
4.7123889803846897
0
LINE
5
169
100
AcDbEntity
8
0
100
AcDbLine
10
-0.0002007509653623174
20
4.9737991503207013e-13
30
0
11
118.99979924903455
21
6.3948846218409017e-13
31
0
0
CIRCLE
5
170
100
AcDbEntity
8
0
100
AcDbCircle
10
7.1997992490346814
20
140.56700000000012
30
0
40
2.2000000000000002
0
ELLIPSE
5
171
100
AcDbEntity
8
0
100
AcDbEllipse
10
110.92985424903453
20
32.700000000945053
30
2.0485644857758576e-23
11
1.0721976946062533e-15
21
2.2999999999762593
31
0.0
40
0.95652173914030825
41
-1.5707963267948966
42
4.7123889803846897
0
LINE
5
172
100
AcDbEntity
8
0
100
AcDbLine
10
24.999799249034638
20
484.00000000000057
30
0
11
518.99979924903482
21
484.0000000000004
31
0
0
CIRCLE
5
173
100
AcDbEntity
8
0
100
AcDbCircle
10
12.699799248989265
20
7.200000000000486
30
2.0453333115080723e-23
40
2.2000000000000002
0
CIRCLE
5
174
100
AcDbEntity
8
0
100
AcDbCircle
10
33.899799248989311
20
7.200000000000486
30
2.0453333115080723e-23
40
2.2000000000000002
0
CIRCLE
5
175
100
AcDbEntity
8
0
100
AcDbCircle
10
61.829799249034423
20
7.200000001286142
30
2.4737865136809742e-15
40
2.2000000000000002
0
CIRCLE
5
176
100
AcDbEntity
8
0
100
AcDbCircle
10
83.029799249034468
20
7.200000001286142
30
2.4737865136809742e-15
40
2.2000000000000002
0
CIRCLE
5
177
100
AcDbEntity
8
0
100
AcDbCircle
10
58.411686083365311
20
376.75299728714822
30
0
40
2.2000000000000002
0
CIRCLE
5
178
100
AcDbEntity
8
0
100
AcDbCircle
10
88.511686083365362
20
376.75299728714839
30
0
40
2.2000000000000002
0
CIRCLE
5
179
100
AcDbEntity
8
0
100
AcDbCircle
10
37.574508256874637
20
399.75299728714901
30
0
40
2.2000000000000002
0
CIRCLE
5
180
100
AcDbEntity
8
0
100
AcDbCircle
10
67.511686083365134
20
399.75299728714788
30
0
40
2.2000000000000002
0
CIRCLE
5
181
100
AcDbEntity
8
0
100
AcDbCircle
10
492.37450825687517
20
399.75299728714901
30
0
40
2.2000000000000002
0
CIRCLE
5
182
100
AcDbEntity
8
0
100
AcDbCircle
10
522.31168608336543
20
399.75299728714873
30
0
40
2.2000000000000002
0
CIRCLE
5
183
100
AcDbEntity
8
0
100
AcDbCircle
10
471.21168608336546
20
376.75299728714748
30
0
40
2.2000000000000002
0
CIRCLE
5
184
100
AcDbEntity
8
0
100
AcDbCircle
10
501.31168608336554
20
376.75299728714748
30
0
40
2.2000000000000002
0
CIRCLE
5
185
100
AcDbEntity
8
0
100
AcDbCircle
10
291.17499999997511
20
318.20000000000061
30
0
40
2.2000000000000002
0
CIRCLE
5
186
100
AcDbEntity
8
0
100
AcDbCircle
10
198.08199999997484
20
318.20000000000061
30
0
40
2.2000000000000002
0
CIRCLE
5
187
100
AcDbEntity
8
0
100
AcDbCircle
10
384.20675440296532
20
318.20000000000056
30
0
40
2.2000000000000002
0
CIRCLE
5
188
100
AcDbEntity
8
0
100
AcDbCircle
10
471.21168608336546
20
396.75299728714748
30
0
40
4
0
CIRCLE
5
189
100
AcDbEntity
8
0
100
AcDbCircle
10
88.511686083365362
20
396.75299728714839
30
0
40
4
0
CIRCLE
5
190
100
AcDbEntity
8
0
100
AcDbCircle
10
133.98399999999995
20
454.10135376468952
30
0
40
2.2000000000000002
0
CIRCLE
5
191
100
AcDbEntity
8
0
100
AcDbCircle
10
155.98399999999998
20
454.10135376468952
30
0
40
2.2000000000000002
0
ENDSEC
0
SECTION
2
OBJECTS
0
DICTIONARY
5
C
100
AcDbDictionary
3
ACAD_GROUP
350
D
3
ACAD_MLINESTYLE
350
17
0
DICTIONARY
5
D
100
AcDbDictionary
0
DICTIONARY
5
1A
330
C
100
AcDbDictionary
0
DICTIONARY
5
17
100
AcDbDictionary
0
ENDSEC
0
EOF
