0
SECTION
2
HEADER
9
$INSUNITS
70
4
9
$ACADVER
1
AC1014
9
$HANDSEED
5
FFFF
0
ENDSEC
0
SECTION
2
TABLES
0
TABLE
2
VPORT
5
8
100
AcDbSymbolTable
0
ENDTAB
0
TABLE
2
LTYPE
5
5
100
AcDbSymbolTable
0
LTYPE
5
14
100
AcDbSymbolTableRecord
100
AcDbLinetypeTableRecord
2
BYBLOCK
70
0
0
LTYPE
5
15
100
AcDbSymbolTableRecord
100
AcDbLinetypeTableRecord
2
BYLAYER
70
0
0
ENDTAB
0
TABLE
2
LAYER
5
2
100
AcDbSymbolTable
70
2
0
LAYER
5
50
100
AcDbSymbolTableRecord
100
AcDbLayerTableRecord
2
0
70
0
6
CONTINUOUS
0
ENDTAB
0
TABLE
2
STYLE
5
3
100
AcDbSymbolTable
70
1
0
STYLE
5
11
100
AcDbSymbolTableRecord
100
AcDbTextStyleTableRecord
2
STANDARD
70
0
0
ENDTAB
0
TABLE
2
VIEW
5
6
100
AcDbSymbolTable
70
0
0
ENDTAB
0
TABLE
2
UCS
5
7
100
AcDbSymbolTable
70
0
0
ENDTAB
0
TABLE
2
APPID
5
9
100
AcDbSymbolTable
70
2
0
APPID
5
12
100
AcDbSymbolTableRecord
100
AcDbRegAppTableRecord
2
ACAD
70
0
0
ENDTAB
0
TABLE
2
DIMSTYLE
5
A
100
AcDbSymbolTable
70
1
0
ENDTAB
0
TABLE
2
BLOCK_RECORD
5
1
100
AcDbSymbolTable
70
1
0
BLOCK_RECORD
5
1F
100
AcDbSymbolTableRecord
100
AcDbBlockTableRecord
2
*MODEL_SPACE
0
BLOCK_RECORD
5
1B
100
AcDbSymbolTableRecord
100
AcDbBlockTableRecord
2
*PAPER_SPACE
0
ENDTAB
0
ENDSEC
0
SECTION
2
BLOCKS
0
BLOCK
5
20
100
AcDbEntity
100
AcDbBlockBegin
2
*MODEL_SPACE
0
ENDBLK
5
21
100
AcDbEntity
100
AcDbBlockEnd
0
BLOCK
5
1C
100
AcDbEntity
100
AcDbBlockBegin
2
*PAPER_SPACE
0
ENDBLK
5
1D
100
AcDbEntity
100
AcDbBlockEnd
0
ENDSEC
0
SECTION
2
ENTITIES
0
CIRCLE
5
100
100
AcDbEntity
8
0
100
AcDbCircle
10
169.75008082668268
20
135.75008082667924
30
1.6656557119153483e-14
40
2.2000000000000002
0
CIRCLE
5
101
100
AcDbEntity
8
0
100
AcDbCircle
10
169.75008082668268
20
64.250080826679024
30
1.6656557119153499e-14
40
2.2000000000000002
0
CIRCLE
5
102
100
AcDbEntity
8
0
100
AcDbCircle
10
98.250080826682478
20
135.75008082667887
30
7.9003325052498944e-15
40
2.2000000000000002
0
LWPOLYLINE
5
103
100
AcDbEntity
8
0
100
AcDbPolyline
90
5
70
1
43
0.0
10
-0.00020041542242665855
20
0.00042145818975214411
10
191.99977632169976
20
0.00042145816166794248
10
191.99977632097344
20
484.00042145816195
10
24.999799584503613
20
484.00042145816195
42
0.41421356237313994
10
-0.00020041549290361615
20
459.00042145815809
0
CIRCLE
5
104
100
AcDbEntity
8
0
100
AcDbCircle
10
7.7000808263643794
20
7.2000808266807859
30
-3.1888442610683512e-15
40
2.2000000000000002
0
CIRCLE
5
105
100
AcDbEntity
8
0
100
AcDbCircle
10
184.80008082709304
20
27.400080827400775
30
1.8499650551920534e-14
40
2.2000000000000002
0
CIRCLE
5
106
100
AcDbEntity
8
0
100
AcDbCircle
10
113.6730808263539
20
7.2000808266687066
30
9.7891052635346351e-15
40
2.2000000000000002
0
CIRCLE
5
107
100
AcDbEntity
8
0
100
AcDbCircle
10
98.250080826683046
20
64.250080826678598
30
7.9003325052499733e-15
40
2.2000000000000002
0
CIRCLE
5
108
100
AcDbEntity
8
0
100
AcDbCircle
10
184.80008082712487
20
48.600080827400788
30
1.8499650551924431e-14
40
2.2000000000000002
0
CIRCLE
5
109
100
AcDbEntity
8
0
100
AcDbCircle
10
28.900080826364281
20
7.2000808266838767
30
-5.9259304687595529e-16
40
2.2000000000000002
0
CIRCLE
5
110
100
AcDbEntity
8
0
100
AcDbCircle
10
184.80008082721497
20
173.76710745768477
30
5.5203313619923551e-14
40
2.2000000000000002
0
CIRCLE
5
111
100
AcDbEntity
8
0
100
AcDbCircle
10
134.87308082635394
20
7.200080826671833
30
1.2385356477727015e-14
40
2.2000000000000002
0
CIRCLE
5
112
100
AcDbEntity
8
0
100
AcDbCircle
10
184.80008082718314
20
194.96710745768482
30
5.2607062405727258e-14
40
2.2000000000000002
0
CIRCLE
5
113
100
AcDbEntity
8
0
100
AcDbCircle
10
134.00008082668279
20
100.0000808266791
30
1.2278444812201736e-14
40
39.000000000000043
0
LINE
5
114
100
AcDbEntity
8
0
100
AcDbLine
10
33.806654115909758
20
478.89330072680019
30
-6.5522964380940405e-16
11
33.315695067639773
21
479.15098066607123
31
-7.469114777902782e-16
0
LWPOLYLINE
5
115
100
AcDbEntity
8
0
100
AcDbPolyline
90
28
70
1
43
0.0
10
31.193554064029819
20
478.89330072680019
10
30.77853407501977
20
478.52562089243526
10
30.463554044959771
20
478.06930084505632
10
30.266934057469761
20
477.55087085047313
10
30.200104137659814
20
477.00044079104026
10
30.200104137659814
20
475.00044079104021
10
30.266934057469761
20
474.45001478472329
10
30.463554044959771
20
473.93158073703029
10
30.77853407501977
20
473.47526080886018
10
31.193554064029819
20
473.10758073607025
10
31.684513112309752
20
472.84990067760026
10
32.222870101929793
20
472.71721072475026
10
32.777338078019731
20
472.71721072475026
10
33.315695067639773
20
472.84990067760026
10
33.806654115909758
20
473.10758073607025
10
34.221674104929825
20
473.47526080886018
10
34.536654134989753
20
473.93158073703029
10
34.733274122479763
20
474.45001478472329
10
34.800104042289782
20
475.00044079104021
10
34.800104042289782
20
477.00044079104026
10
34.733274122479763
20
477.5508708504733
10
34.536654134989753
20
478.06930084505632
10
34.221674104929825
20
478.52562089243526
10
33.806654115909758
20
478.89330072680031
10
33.315695067639773
20
479.15098066607123
10
32.777338078019802
20
479.28367061892124
10
32.222870101929793
20
479.28367061892124
10
31.684513112309752
20
479.15098066607123
0
LINE
5
116
100
AcDbEntity
8
0
100
AcDbLine
10
34.536654134989753
20
473.93158073703029
30
4.1805025238720247e-17
11
34.733274122479763
21
474.45001478472329
31
2.3941693639032555e-18
0
LINE
5
117
100
AcDbEntity
8
0
100
AcDbLine
10
34.536654134989753
20
478.06930084505632
30
-4.6491954336746395e-16
11
34.221674104929825
21
478.52562089243526
31
-5.5937656046921275e-16
0
LINE
5
118
100
AcDbEntity
8
0
100
AcDbLine
10
30.266934057469761
20
477.5508708504733
30
-9.2432008264165455e-16
11
30.200104137659814
21
477.00044079104026
31
-8.6509614633600112e-16
0
LINE
5
119
100
AcDbEntity
8
0
100
AcDbLine
10
31.193554064029819
20
478.89330072680019
30
-9.7524210524804002e-16
11
30.77853407501977
21
478.52562089243526
31
-9.8103960213375667e-16
0
LINE
5
120
100
AcDbEntity
8
0
100
AcDbLine
10
30.200104137659814
20
477.00044079104026
30
-8.6509614633600112e-16
11
30.200104137659814
21
475.00044079104021
31
-6.201667865065182e-16
0
LINE
5
121
100
AcDbEntity
8
0
100
AcDbLine
10
30.463554044959771
20
478.06930084505632
30
-9.6373044215364106e-16
11
30.266934057469761
21
477.5508708504733
31
-9.2432008264165455e-16
0
LINE
5
122
100
AcDbEntity
8
0
100
AcDbLine
10
34.800104042289782
20
477.00044079104026
30
-3.0175863040766108e-16
11
34.733274122479763
21
477.55087085047313
31
-3.7735117618982499e-16
0
LINE
5
123
100
AcDbEntity
8
0
100
AcDbLine
10
33.315695067639773
20
479.15098066607123
30
-7.469114777902782e-16
11
32.777338078019731
21
479.28367061892124
31
-8.2909102680765272e-16
0
LINE
5
124
100
AcDbEntity
8
0
100
AcDbLine
10
31.684513112309752
20
479.15098066607123
30
-9.4667365383248447e-16
11
31.193554064029819
21
478.89330072680031
31
-9.752421052480558e-16
0
LINE
5
125
100
AcDbEntity
8
0
100
AcDbLine
10
30.77853407501977
20
478.52562089243526
30
-9.8103960213375667e-16
11
30.463554044959771
21
478.06930084505632
31
-9.6373044215364106e-16
0
LINE
5
126
100
AcDbEntity
8
0
100
AcDbLine
10
34.800104042289782
20
475.00044079104021
30
-5.6829270578209713e-17
11
34.800104042289782
21
477.00044079104026
31
-3.0175863040767685e-16
0
LINE
5
127
100
AcDbEntity
8
0
100
AcDbLine
10
34.536654134989753
20
473.93158073703029
30
4.1805025238720247e-17
11
34.221674104929825
21
473.47526080886018
31
5.9114170619955064e-17
0
LINE
5
128
100
AcDbEntity
8
0
100
AcDbLine
10
32.222870101929793
20
479.28367061892124
30
-8.969937700224649e-16
11
31.684513112309752
21
479.15098066607123
31
-9.4667365383246869e-16
0
LINE
5
129
100
AcDbEntity
8
0
100
AcDbLine
10
32.777338078019802
20
479.28367061892124
30
-8.2909102680763694e-16
11
32.222870101929793
21
479.28367061892124
31
-8.969937700224649e-16
0
LINE
5
130
100
AcDbEntity
8
0
100
AcDbLine
10
34.221674104929825
20
478.52562089243526
30
-5.5937656046921275e-16
11
33.806654115909758
21
478.89330072680019
31
-6.5522964380940405e-16
0
LINE
5
131
100
AcDbEntity
8
0
100
AcDbLine
10
34.733274122479763
20
477.5508708504733
30
-3.7735117618984077e-16
11
34.536654134989753
21
478.06930084505632
31
-4.6491954336746395e-16
0
LINE
5
132
100
AcDbEntity
8
0
100
AcDbLine
10
55.200104137653916
20
477.00044079104026
30
2.1965208515316518e-15
11
55.200104137653916
21
475.00044079104021
31
2.4414502113611347e-15
0
LWPOLYLINE
5
133
100
AcDbEntity
8
0
100
AcDbPolyline
90
28
70
1
43
0.0
10
59.800104042285803
20
475.00044079104021
10
59.800104042285803
20
477.00044079104038
10
59.733274122470881
20
477.5508708504733
10
59.536654134982861
20
478.06930084505632
10
59.221674104923927
20
478.52562089243526
10
58.806654115909829
20
478.89330072680031
10
58.315695067638849
20
479.15098066607123
10
57.777338078016818
20
479.28367061892124
10
57.222870101922901
20
479.28367061892141
10
56.68451311230087
20
479.15098066607123
10
56.19355406402989
20
478.89330072680031
10
55.778534075015791
20
478.52562089243526
10
55.463554044956858
20
478.06930084505632
10
55.266934057468838
20
477.5508708504733
10
55.200104137653916
20
477.00044079104038
10
55.200104137653916
20
475.00044079104038
10
55.266934057468838
20
474.45001478472329
10
55.463554044956858
20
473.93158073703029
10
55.778534075015791
20
473.47526080886036
10
56.19355406402989
20
473.10758073607025
10
56.68451311230087
20
472.84990067760026
10
57.222870101922901
20
472.71721072475026
10
57.777338078016818
20
472.71721072475026
10
58.315695067638849
20
472.84990067760026
10
58.806654115909829
20
473.10758073607025
10
59.221674104923927
20
473.47526080886036
10
59.536654134982861
20
473.93158073703029
10
59.733274122470881
20
474.45001478472329
0
LINE
5
134
100
AcDbEntity
8
0
100
AcDbLine
10
55.463554044956858
20
473.93158073703029
30
2.6046111243205432e-15
11
55.778534075015791
21
473.47526080886036
31
2.699068126823285e-15
0
LINE
5
135
100
AcDbEntity
8
0
100
AcDbLine
10
57.222870101922901
20
472.71721072475026
30
2.9687826369576574e-15
11
56.68451311230087
21
472.84990067760026
31
2.886603087940062e-15
0
LINE
5
136
100
AcDbEntity
8
0
100
AcDbLine
10
57.777338078016818
20
472.71721072475026
30
3.0366853801729744e-15
11
58.315695067638849
21
472.84990067760026
31
3.0863652639832149e-15
0
LINE
5
137
100
AcDbEntity
8
0
100
AcDbLine
10
59.221674104923927
20
473.47526080886036
30
3.120731168487608e-15
11
59.536654134982861
21
473.93158073703029
31
3.103422023106247e-15
0
LINE
5
138
100
AcDbEntity
8
0
100
AcDbLine
10
57.222870101922901
20
472.71721072475026
30
2.9687826369576574e-15
11
57.777338078016818
21
472.71721072475026
31
3.0366853801729744e-15
0
LINE
5
139
100
AcDbEntity
8
0
100
AcDbLine
10
55.200104137653916
20
475.00044079104038
30
2.4414502113611347e-15
11
55.266934057468838
21
474.45001478472329
31
2.5170422607803577e-15
0
LINE
5
140
100
AcDbEntity
8
0
100
AcDbLine
10
56.68451311230087
20
472.84990067760026
30
2.886603087940062e-15
11
57.222870101922901
21
472.71721072475026
31
2.9687826369576574e-15
0
LINE
5
141
100
AcDbEntity
8
0
100
AcDbLine
10
59.800104042285803
20
475.00044079104038
30
3.0047877272896957e-15
11
59.800104042285803
21
477.00044079104038
31
2.7598583674602128e-15
0
LINE
5
142
100
AcDbEntity
8
0
100
AcDbLine
10
58.806654115909829
20
473.10758073607025
30
3.1149337008000316e-15
11
59.221674104923927
21
473.47526080886036
31
3.120731168487608e-15
0
LINE
5
143
100
AcDbEntity
8
0
100
AcDbLine
10
59.733274122470881
20
474.45001478472329
30
3.0640111672311933e-15
11
59.800104042285803
21
475.00044079104038
31
3.0047877272896957e-15
0
LINE
5
144
100
AcDbEntity
8
0
100
AcDbLine
10
56.19355406402989
20
473.10758073607025
30
2.7949212393613799e-15
11
56.68451311230087
21
472.84990067760026
31
2.886603087940062e-15
0
LINE
5
145
100
AcDbEntity
8
0
100
AcDbLine
10
58.315695067638849
20
472.84990067760026
30
3.0863652639832149e-15
11
58.806654115909829
21
473.10758073607025
31
3.1149337008000316e-15
0
LINE
5
146
100
AcDbEntity
8
0
100
AcDbLine
10
55.266934057468838
20
474.45001478472329
30
2.5170422607803577e-15
11
55.463554044956858
21
473.93158073703029
31
2.6046111243205432e-15
0
LINE
5
147
100
AcDbEntity
8
0
100
AcDbLine
10
56.68451311230087
20
472.84990067760026
30
2.886603087940062e-15
11
57.222870101922901
21
472.71721072475026
31
2.9687826369576574e-15
0
LINE
5
148
100
AcDbEntity
8
0
100
AcDbLine
10
59.536654134982861
20
473.93158073703029
30
3.103422023106247e-15
11
59.733274122470881
21
474.45001478472329
31
3.0640111672311933e-15
0
LINE
5
149
100
AcDbEntity
8
0
100
AcDbLine
10
55.778534075015791
20
473.47526080886036
30
2.699068126823285e-15
11
56.19355406402989
21
473.10758073607025
31
2.7949212393613799e-15
0
LINE
5
150
100
AcDbEntity
8
0
100
AcDbLine
10
59.536654134982861
20
478.06930084505632
30
2.5966974545000786e-15
11
59.221674104923927
21
478.52562089243526
31
2.5022404373984402e-15
0
LINE
5
151
100
AcDbEntity
8
0
100
AcDbLine
10
56.19355406402989
20
478.89330072680031
30
2.0863748926203387e-15
11
55.778534075015791
21
478.52562089243526
31
2.0805773957341172e-15
0
LINE
5
152
100
AcDbEntity
8
0
100
AcDbLine
10
55.266934057468838
20
477.5508708504733
30
2.1372969152266137e-15
11
55.200104137653916
21
477.00044079104038
31
2.1965208515316518e-15
0
LINE
5
153
100
AcDbEntity
8
0
100
AcDbLine
10
55.463554044956858
20
478.06930084505632
30
2.0978865557143748e-15
11
55.266934057468838
21
477.5508708504733
31
2.1372969152266295e-15
0
LINE
5
154
100
AcDbEntity
8
0
100
AcDbLine
10
57.777338078016818
20
479.28367061892124
30
2.2325259710603789e-15
11
57.222870101922901
21
479.28367061892124
31
2.1646232278450618e-15
0
LINE
5
155
100
AcDbEntity
8
0
100
AcDbLine
10
58.315695067638849
20
479.15098066607135
30
2.3147055200779743e-15
11
57.777338078016818
21
479.28367061892141
31
2.2325259710603631e-15
0
LINE
5
156
100
AcDbEntity
8
0
100
AcDbLine
10
56.68451311230087
20
479.15098066607135
30
2.1149433440348214e-15
11
56.19355406402989
21
478.89330072680031
31
2.0863748926203387e-15
0
LINE
5
157
100
AcDbEntity
8
0
100
AcDbLine
10
55.778534075015791
20
478.52562089243526
30
2.0805773957341172e-15
11
55.463554044956858
21
478.06930084505632
31
2.097886555714359e-15
0
LINE
5
158
100
AcDbEntity
8
0
100
AcDbLine
10
59.733274122470881
20
477.5508708504733
30
2.6842658216774493e-15
11
59.536654134982861
21
478.06930084505632
31
2.5966974545000628e-15
0
LINE
5
159
100
AcDbEntity
8
0
100
AcDbLine
10
57.222870101922901
20
479.28367061892124
30
2.1646232278450618e-15
11
56.68451311230087
21
479.15098066607123
31
2.1149433440348214e-15
0
LINE
5
160
100
AcDbEntity
8
0
100
AcDbLine
10
32.777338078019802
20
472.71721072475026
30
-2.4931617695041419e-17
11
33.315695067639773
21
472.84990067760026
31
2.4748266114962371e-17
0
CIRCLE
5
161
100
AcDbEntity
8
0
100
AcDbCircle
10
184.79973490883566
20
455.10044079375979
30
2.0749874640791973e-14
40
2.2000000000000002
0
CIRCLE
5
162
100
AcDbEntity
8
0
100
AcDbCircle
10
184.80008082637411
20
294.50077412436337
30
3.662950383275091e-14
40
2.2000000000000002
0
LINE
5
163
100
AcDbEntity
8
0
100
AcDbLine
10
34.221674104929825
20
473.47526080886018
30
5.9114170619955064e-17
11
34.536654134989753
21
473.93158073703029
31
4.1805025238720247e-17
0
CIRCLE
5
164
100
AcDbEntity
8
0
100
AcDbCircle
10
184.79973490880383
20
476.30044079375983
30
1.815362342659568e-14
40
2.2000000000000002
0
LINE
5
165
100
AcDbEntity
8
0
100
AcDbLine
10
34.733274122479763
20
474.45001478472329
30
2.3941693639032555e-18
11
34.800104042289853
21
475.00044079104021
31
-5.6829270578178159e-17
0
LINE
5
166
100
AcDbEntity
8
0
100
AcDbLine
10
31.193554064029819
20
473.10758073607025
30
-2.6669575850701462e-16
11
31.684513112309752
21
472.84990067760026
31
-1.7501390992722812e-16
0
CIRCLE
5
167
100
AcDbEntity
8
0
100
AcDbCircle
10
184.80008082634228
20
315.70077412436348
30
3.4033252618554636e-14
40
2.2000000000000002
0
LINE
5
168
100
AcDbEntity
8
0
100
AcDbLine
10
59.800104042285803
20
477.00044079104026
30
2.7598583674602128e-15
11
59.733274122470881
21
477.5508708504733
31
2.6842658216774651e-15
0
LINE
5
169
100
AcDbEntity
8
0
100
AcDbLine
10
30.266934057469761
20
474.45001478472329
30
-5.4457473708791053e-16
11
30.463554044959771
21
473.93158073703029
31
-4.5700587354747264e-16
0
LINE
5
170
100
AcDbEntity
8
0
100
AcDbLine
10
31.684513112309752
20
472.84990067760026
30
-1.7501390992722812e-16
11
32.222870101929793
21
472.71721072475026
31
-9.2834360909869383e-17
0
LINE
5
171
100
AcDbEntity
8
0
100
AcDbLine
10
33.315695067639773
20
472.84990067760026
30
2.4748266114962371e-17
11
33.806654115909758
21
473.10758073607025
31
5.3316702931637125e-17
0
LINE
5
172
100
AcDbEntity
8
0
100
AcDbLine
10
30.200104137659814
20
475.00044079104021
30
-6.201667865065182e-16
11
30.266934057469761
21
474.45001478472329
31
-5.4457473708791053e-16
0
LINE
5
173
100
AcDbEntity
8
0
100
AcDbLine
10
59.221674104923927
20
478.52562089243526
30
2.5022404373984402e-15
11
58.806654115909829
21
478.89330072680031
31
2.4063873540590062e-15
0
LINE
5
174
100
AcDbEntity
8
0
100
AcDbLine
10
33.806654115909758
20
473.10758073607025
30
5.3316702931637125e-17
11
34.221674104929825
21
473.47526080886018
31
5.9114170619955064e-17
0
LINE
5
175
100
AcDbEntity
8
0
100
AcDbLine
10
30.463554044959771
20
473.93158073703029
30
-4.5700587354747264e-16
11
30.77853407501977
21
473.47526080886018
31
-3.6254887104458885e-16
0
LINE
5
176
100
AcDbEntity
8
0
100
AcDbLine
10
32.222870101929793
20
472.71721072475026
30
-9.2834360909869383e-17
11
32.777338078019802
21
472.71721072475026
31
-2.4931617695041419e-17
0
LINE
5
177
100
AcDbEntity
8
0
100
AcDbLine
10
30.77853407501977
20
473.47526080886018
30
-3.6254887104458885e-16
11
31.193554064029819
21
473.10758073607025
31
-2.6669575850701462e-16
0
CIRCLE
5
178
100
AcDbEntity
8
0
100
AcDbCircle
10
148.89999999999986
20
316.19999999979132
30
3.5527136788005009e-14
40
2.2000000000000002
0
CIRCLE
5
179
100
AcDbEntity
8
0
100
AcDbCircle
10
17.899999999999743
20
316.19999999979149
30
5.1570009856835383e-14
40
2.2000000000000002
0
CIRCLE
5
180
100
AcDbEntity
8
0
100
AcDbCircle
10
6.8000000000311545
20
230.03299999979163
30
6.8498169416671048e-15
40
2.2000000000000002
0
CIRCLE
5
181
100
AcDbEntity
8
0
100
AcDbCircle
10
6.8000000000308702
20
93.365999999791541
30
-9.8870634682400035e-15
40
2.2000000000000002
0
ENDSEC
0
SECTION
2
OBJECTS
0
DICTIONARY
5
C
100
AcDbDictionary
3
ACAD_GROUP
350
D
3
ACAD_MLINESTYLE
350
17
0
DICTIONARY
5
D
100
AcDbDictionary
0
DICTIONARY
5
1A
330
C
100
AcDbDictionary
0
DICTIONARY
5
17
100
AcDbDictionary
0
ENDSEC
0
EOF
