0
SECTION
2
HEADER
9
$INSUNITS
70
4
9
$ACADVER
1
AC1014
9
$HANDSEED
5
FFFF
0
ENDSEC
0
SECTION
2
TABLES
0
TABLE
2
VPORT
5
8
100
AcDbSymbolTable
0
ENDTAB
0
TABLE
2
LTYPE
5
5
100
AcDbSymbolTable
0
LTYPE
5
14
100
AcDbSymbolTableRecord
100
AcDbLinetypeTableRecord
2
BYBLOCK
70
0
0
LTYPE
5
15
100
AcDbSymbolTableRecord
100
AcDbLinetypeTableRecord
2
BYLAYER
70
0
0
ENDTAB
0
TABLE
2
LAYER
5
2
100
AcDbSymbolTable
70
2
0
LAYER
5
50
100
AcDbSymbolTableRecord
100
AcDbLayerTableRecord
2
0
70
0
6
CONTINUOUS
0
ENDTAB
0
TABLE
2
STYLE
5
3
100
AcDbSymbolTable
70
1
0
STYLE
5
11
100
AcDbSymbolTableRecord
100
AcDbTextStyleTableRecord
2
STANDARD
70
0
0
ENDTAB
0
TABLE
2
VIEW
5
6
100
AcDbSymbolTable
70
0
0
ENDTAB
0
TABLE
2
UCS
5
7
100
AcDbSymbolTable
70
0
0
ENDTAB
0
TABLE
2
APPID
5
9
100
AcDbSymbolTable
70
2
0
APPID
5
12
100
AcDbSymbolTableRecord
100
AcDbRegAppTableRecord
2
ACAD
70
0
0
ENDTAB
0
TABLE
2
DIMSTYLE
5
A
100
AcDbSymbolTable
70
1
0
ENDTAB
0
TABLE
2
BLOCK_RECORD
5
1
100
AcDbSymbolTable
70
1
0
BLOCK_RECORD
5
1F
100
AcDbSymbolTableRecord
100
AcDbBlockTableRecord
2
*MODEL_SPACE
0
BLOCK_RECORD
5
1B
100
AcDbSymbolTableRecord
100
AcDbBlockTableRecord
2
*PAPER_SPACE
0
ENDTAB
0
ENDSEC
0
SECTION
2
BLOCKS
0
BLOCK
5
20
100
AcDbEntity
100
AcDbBlockBegin
2
*MODEL_SPACE
0
ENDBLK
5
21
100
AcDbEntity
100
AcDbBlockEnd
0
BLOCK
5
1C
100
AcDbEntity
100
AcDbBlockBegin
2
*PAPER_SPACE
0
ENDBLK
5
1D
100
AcDbEntity
100
AcDbBlockEnd
0
ENDSEC
0
SECTION
2
ENTITIES
0
LWPOLYLINE
5
100
100
AcDbEntity
8
0
100
AcDbPolyline
90
29
70
1
43
0.0
10
191.99973635348402
20
0.0030605775540237801
10
191.99765120227573
20
459.0025509396898
42
0.4141828817063451
10
167.00039317562104
20
484.0026743672604
10
-3.8815151803817116e-05
20
484.00009402177773
10
0.00021776264059525374
20
427.52023973982347
10
2.4238079491131259
20
427.52020273247098
42
-0.41786039453795037
10
4.9960392625211369
20
425.06275294704068
10
4.9963009627502331
20
367.45526480063887
42
-0.42194474915348973
10
2.4012121950641685
20
364.98655640301848
10
-0.0015639053558658134
20
364.98571616086053
10
9.4158033974167665e-05
20
9.3966010155099866e-05
10
14.393128282135876
20
0.00031635466029911186
10
14.393154011617781
20
2.5267963111384972
42
-0.40252183940136244
10
16.794851630824752
20
5.0229839693034251
10
37.046834624479743
20
5.0232968853310922
42
-0.39922605894315794
10
39.427144383163117
20
2.5350434149198975
10
39.427159652657551
20
0.00070315877806592653
10
86.2877073126852
20
0.0014272071942400544
10
86.287649141093794
20
3.5100216882344171
42
-0.44079891774307561
10
89.053142305915117
20
5.9541810950949525
10
90.796933500731967
20
5.9542083638105225
42
-0.41262386086725528
10
93.329933916465563
20
3.5015360184361555
10
93.32999194556163
20
0.0015360184362123164
10
99.037711984729413
20
0.0016242091781748513
10
99.037653825679513
20
3.5100233780120504
42
-0.4407972563581109
10
101.80314357946511
20
5.9541633403034666
10
103.54693505532691
20
5.9541902838552119
42
-0.41259980053724099
10
106.07993276862086
20
3.5017330203453412
10
106.07999078843693
20
0.0017330203453980175
0
CIRCLE
5
101
100
AcDbEntity
8
0
100
AcDbCircle
10
158.79309645308336
20
30.071609655091294
30
3.5527136788005009e-14
40
2.2000000000000002
0
CIRCLE
5
102
100
AcDbEntity
8
0
100
AcDbCircle
10
158.79309645304755
20
121.34664925600234
30
3.5527136788005009e-14
40
2.2000000000000002
0
LINE
5
103
100
AcDbEntity
8
0
100
AcDbLine
10
157.77803657631054
20
478.5177858291612
30
6.1849073108917176e-16
11
157.46305654625047
21
478.06146578178209
31
5.6260764254822772e-16
0
LINE
5
104
100
AcDbEntity
8
0
100
AcDbLine
10
157.77803657631054
20
473.46742574558613
30
0
11
158.19305656533061
21
473.09974567279619
31
-4.5027822425251348e-17
0
LINE
5
105
100
AcDbEntity
8
0
100
AcDbLine
10
158.68401561360059
20
479.14314560279701
30
6.9507521559905655e-16
11
159.22237260322049
21
479.27583555564718
31
7.1132504820273797e-16
0
LINE
5
106
100
AcDbEntity
8
0
100
AcDbLine
10
161.73277662377046
20
474.44217972144907
30
1.193729336496828e-16
11
161.53615663628045
21
473.92374567375606
31
5.5883073942055358e-17
0
LINE
5
107
100
AcDbEntity
8
0
100
AcDbLine
10
161.22117660622052
20
478.5177858291612
30
6.1849073108917176e-16
11
161.53615663628059
21
478.06146578178209
31
5.6260764254822772e-16
0
LINE
5
108
100
AcDbEntity
8
0
100
AcDbLine
10
157.46305654625047
20
473.92374567375606
30
5.5883073942055358e-17
11
157.26643655876046
21
474.44217972144907
31
1.193729336496828e-16
0
LINE
5
109
100
AcDbEntity
8
0
100
AcDbLine
10
161.22117660622052
20
473.46742574558613
30
0
11
160.80615661721055
21
473.09974567279619
31
-4.5027822425251348e-17
0
LINE
5
110
100
AcDbEntity
8
0
100
AcDbLine
10
161.73277662377046
20
477.54303578719907
30
4.9911827920341105e-16
11
161.53615663628045
21
478.06146578178209
31
5.6260764254822772e-16
0
LINE
5
111
100
AcDbEntity
8
0
100
AcDbLine
10
160.31519756893061
20
472.8420656143262
30
-7.658452830619191e-17
11
160.80615661721055
21
473.09974567279619
31
-4.5027822425251348e-17
0
LINE
5
112
100
AcDbEntity
8
0
100
AcDbLine
10
160.31519756893061
20
472.8420656143262
30
-7.658452830619191e-17
11
159.77684057931057
21
472.70937566147603
31
-9.2834360909869383e-17
0
LINE
5
113
100
AcDbEntity
8
0
100
AcDbLine
10
157.46305654625047
20
473.92374567375606
30
5.5883073942055358e-17
11
157.77803657631054
21
473.46742574558613
31
0
0
LINE
5
114
100
AcDbEntity
8
0
100
AcDbLine
10
161.79960654358055
20
474.99260572776615
30
1.8678067833003917e-16
11
161.7327766237706
21
474.44217972144907
31
1.193729336496828e-16
0
LINE
5
115
100
AcDbEntity
8
0
100
AcDbLine
10
160.31519756893061
20
479.14314560279701
30
6.9507521559905655e-16
11
160.80615661721055
21
478.88546566352625
31
6.6351852431578983e-16
0
LINE
5
116
100
AcDbEntity
8
0
100
AcDbLine
10
157.19960663895051
20
474.99260572776615
30
1.8678067833003917e-16
11
157.19960663895051
21
476.99260572776603
31
4.317100381595142e-16
0
LINE
5
117
100
AcDbEntity
8
0
100
AcDbLine
10
161.79960654358055
20
476.99260572776603
30
4.317100381595142e-16
11
161.73277662377046
21
477.54303578719907
31
4.9911827920341105e-16
0
LINE
5
118
100
AcDbEntity
8
0
100
AcDbLine
10
161.53615663628059
20
473.92374567375606
30
5.5883073942055358e-17
11
161.22117660622052
21
473.46742574558613
31
0
0
LINE
5
119
100
AcDbEntity
8
0
100
AcDbLine
10
159.22237260322049
20
479.27583555564718
30
7.1132504820273008e-16
11
159.77684057931057
21
479.27583555564718
31
7.1132504820273008e-16
0
LINE
5
120
100
AcDbEntity
8
0
100
AcDbLine
10
160.80615661721055
20
478.88546566352596
30
6.6351852431578194e-16
11
161.22117660622052
21
478.5177858291612
31
6.1849073108917176e-16
0
LINE
5
121
100
AcDbEntity
8
0
100
AcDbLine
10
159.22237260322049
20
472.70937566147603
30
-9.2834360909869383e-17
11
158.68401561360059
21
472.8420656143262
31
-7.658452830619191e-17
0
LINE
5
122
100
AcDbEntity
8
0
100
AcDbLine
10
160.31519756893061
20
479.14314560279701
30
6.9507521559904866e-16
11
159.77684057931057
21
479.27583555564718
31
7.1132504820273797e-16
0
LINE
5
123
100
AcDbEntity
8
0
100
AcDbLine
10
157.46305654625047
20
478.06146578178209
30
5.6260764254822772e-16
11
157.26643655876046
21
477.54303578719907
31
4.9911827920342288e-16
0
LINE
5
124
100
AcDbEntity
8
0
100
AcDbLine
10
157.26643655876046
20
474.44217972144907
30
1.193729336496828e-16
11
157.19960663895051
21
474.99260572776615
31
1.8678067833003917e-16
0
LINE
5
125
100
AcDbEntity
8
0
100
AcDbLine
10
161.79960654358055
20
474.99260572776615
30
1.8678067833003917e-16
11
161.79960654358055
21
476.99260572776603
31
4.317100381595142e-16
0
LINE
5
126
100
AcDbEntity
8
0
100
AcDbLine
10
159.22237260322049
20
472.70937566147603
30
-9.2834360909869383e-17
11
159.77684057931057
21
472.70937566147603
31
-9.2834360909869383e-17
0
LINE
5
127
100
AcDbEntity
8
0
100
AcDbLine
10
158.19305656533061
20
478.88546566352625
30
6.6351852431578983e-16
11
157.77803657631054
21
478.5177858291612
31
6.1849073108917176e-16
0
LINE
5
128
100
AcDbEntity
8
0
100
AcDbLine
10
157.26643655876046
20
477.54303578719907
30
4.9911827920342288e-16
11
157.19960663895051
21
476.99260572776603
31
4.317100381595142e-16
0
LINE
5
129
100
AcDbEntity
8
0
100
AcDbLine
10
158.19305656533061
20
478.88546566352596
30
6.6351852431578194e-16
11
158.68401561360059
21
479.14314560279701
31
6.9507521559904866e-16
0
LINE
5
130
100
AcDbEntity
8
0
100
AcDbLine
10
158.19305656533061
20
473.09974567279619
30
-4.5027822425251348e-17
11
158.68401561360059
21
472.8420656143262
31
-7.658452830619191e-17
0
CIRCLE
5
131
100
AcDbEntity
8
0
100
AcDbCircle
10
78.326629854886107
20
7.1922457633947801
30
0
40
2.2000000000000002
0
CIRCLE
5
132
100
AcDbEntity
8
0
100
AcDbCircle
10
57.126629854886204
20
7.1922457633976222
30
0
40
2.2000000000000002
0
CIRCLE
5
133
100
AcDbEntity
8
0
100
AcDbCircle
10
7.1996298541471049
20
22.09224576412673
30
0
40
2.2000000000000002
0
CIRCLE
5
134
100
AcDbEntity
8
0
100
AcDbCircle
10
7.1996298541152726
20
43.292245764126775
30
0
40
2.2000000000000002
0
CIRCLE
5
135
100
AcDbEntity
8
0
100
AcDbCircle
10
7.1996298540252468
20
173.75927239441069
30
-3.670366306798811e-14
40
2.2000000000000002
0
CIRCLE
5
136
100
AcDbEntity
8
0
100
AcDbCircle
10
7.1996298540570791
20
194.95927239441073
30
-3.4107411853795711e-14
40
2.2000000000000002
0
CIRCLE
5
137
100
AcDbEntity
8
0
100
AcDbCircle
10
163.09962985487587
20
7.1922457634098436
30
0
40
2.2000000000000002
0
CIRCLE
5
138
100
AcDbEntity
8
0
100
AcDbCircle
10
184.29962985487583
20
7.1922457634066461
30
0
40
2.2000000000000002
0
LINE
5
139
100
AcDbEntity
8
0
100
AcDbLine
10
134.22237260322362
20
479.27583555564718
30
7.1132504820273008e-16
11
134.77684057931754
21
479.27583555564718
31
7.1132504820273008e-16
0
LINE
5
140
100
AcDbEntity
8
0
100
AcDbLine
10
136.79960654358652
20
474.99260572776615
30
1.8678067833003917e-16
11
136.79960654358652
21
476.99260572776603
31
4.317100381595142e-16
0
LINE
5
141
100
AcDbEntity
8
0
100
AcDbLine
10
136.53615663628358
20
478.06146578178209
30
5.6260764254822772e-16
11
136.2211766062245
21
478.51778582916091
31
6.1849073108915992e-16
0
LINE
5
142
100
AcDbEntity
8
0
100
AcDbLine
10
134.77684057931754
20
472.70937566147603
30
-9.2834360909869383e-17
11
135.31519756893957
21
472.8420656143262
31
-7.658452830619191e-17
0
LINE
5
143
100
AcDbEntity
8
0
100
AcDbLine
10
133.19305656533061
20
478.88546566352625
30
6.6351852431578983e-16
11
132.77803657631651
21
478.5177858291612
31
6.1849073108917176e-16
0
LINE
5
144
100
AcDbEntity
8
0
100
AcDbLine
10
132.19960663895449
20
474.99260572776586
30
1.8678067833003129e-16
11
132.26643655876956
21
474.44217972144907
31
1.193729336496828e-16
0
CIRCLE
5
145
100
AcDbEntity
8
0
100
AcDbCircle
10
7.1999757724047697
20
455.09260573048573
30
-2.2502664516401507e-15
40
2.2000000000000002
0
LINE
5
146
100
AcDbEntity
8
0
100
AcDbLine
10
134.22237260322362
20
472.70937566147603
30
-9.2834360909869383e-17
11
133.68401561360159
21
472.8420656143262
31
-7.658452830619191e-17
0
LINE
5
147
100
AcDbEntity
8
0
100
AcDbLine
10
132.77803657631651
20
473.46742574558613
30
0
11
133.19305656533061
21
473.09974567279619
31
-4.5027822425251348e-17
0
LINE
5
148
100
AcDbEntity
8
0
100
AcDbLine
10
133.19305656533061
20
473.09974567279619
30
-4.5027822425251348e-17
11
133.68401561360159
21
472.8420656143262
31
-7.658452830619191e-17
0
LINE
5
149
100
AcDbEntity
8
0
100
AcDbLine
10
134.77684057931754
20
472.70937566147603
30
-9.2834360909869383e-17
11
134.22237260322348
21
472.70937566147603
31
-9.2834360909869383e-17
0
LINE
5
150
100
AcDbEntity
8
0
100
AcDbLine
10
136.2211766062245
20
473.46742574558613
30
0
11
136.53615663628358
21
473.92374567375606
31
5.5883073942055358e-17
0
LINE
5
151
100
AcDbEntity
8
0
100
AcDbLine
10
136.7327766237716
20
477.54303578719907
30
4.9911827920342288e-16
11
136.79960654358652
21
476.99260572776603
31
4.317100381595142e-16
0
LINE
5
152
100
AcDbEntity
8
0
100
AcDbLine
10
136.7327766237716
20
477.54303578719907
30
4.9911827920341105e-16
11
136.53615663628358
21
478.06146578178209
31
5.6260764254822772e-16
0
LINE
5
153
100
AcDbEntity
8
0
100
AcDbLine
10
132.26643655876956
20
477.54303578719907
30
4.9911827920341105e-16
11
132.19960663895449
21
476.99260572776603
31
4.317100381595142e-16
0
LINE
5
154
100
AcDbEntity
8
0
100
AcDbLine
10
136.53615663628358
20
473.92374567375606
30
5.5883073942055358e-17
11
136.7327766237716
21
474.44217972144907
31
1.193729336496828e-16
0
CIRCLE
5
155
100
AcDbEntity
8
0
100
AcDbCircle
10
7.1996298548661031
20
294.49293906108915
30
-1.8129853280918451e-14
40
2.2000000000000002
0
CIRCLE
5
156
100
AcDbEntity
8
0
100
AcDbCircle
10
7.1996298548979354
20
315.69293906108919
30
-1.5533602066726064e-14
40
2.2000000000000002
0
CIRCLE
5
157
100
AcDbEntity
8
0
100
AcDbCircle
10
7.199975772436602
20
476.29260573048577
30
3.4598476255224516e-16
40
2.2000000000000002
0
LINE
5
158
100
AcDbEntity
8
0
100
AcDbLine
10
132.46305654625758
20
478.06146578178209
30
5.6260764254822772e-16
11
132.26643655876956
21
477.54303578719907
31
4.9911827920341105e-16
0
LINE
5
159
100
AcDbEntity
8
0
100
AcDbLine
10
133.68401561360159
20
479.14314560279701
30
6.9507521559905655e-16
11
134.22237260322348
21
479.27583555564718
31
7.1132504820273797e-16
0
LINE
5
160
100
AcDbEntity
8
0
100
AcDbLine
10
135.80615661721055
20
478.88546566352596
30
6.6351852431578194e-16
11
135.31519756893957
21
479.14314560279701
31
6.9507521559904866e-16
0
LINE
5
161
100
AcDbEntity
8
0
100
AcDbLine
10
132.46305654625758
20
473.92374567375606
30
5.5883073942055358e-17
11
132.77803657631651
21
473.46742574558613
31
0
0
LINE
5
162
100
AcDbEntity
8
0
100
AcDbLine
10
135.80615661721055
20
473.09974567279619
30
-4.5027822425251348e-17
11
135.31519756893957
21
472.8420656143262
31
-7.658452830619191e-17
0
LINE
5
163
100
AcDbEntity
8
0
100
AcDbLine
10
135.80615661721055
20
473.09974567279619
30
-4.5027822425251348e-17
11
136.2211766062245
21
473.46742574558613
31
0
0
LINE
5
164
100
AcDbEntity
8
0
100
AcDbLine
10
136.79960654358652
20
474.99260572776615
30
1.8678067833003917e-16
11
136.7327766237716
21
474.44217972144907
31
1.193729336496828e-16
0
LINE
5
165
100
AcDbEntity
8
0
100
AcDbLine
10
134.77684057931754
20
479.27583555564718
30
7.1132504820273008e-16
11
135.31519756893957
21
479.14314560279701
31
6.9507521559904866e-16
0
LINE
5
166
100
AcDbEntity
8
0
100
AcDbLine
10
133.68401561360159
20
479.14314560279701
30
6.9507521559904866e-16
11
133.19305656533061
21
478.88546566352625
31
6.6351852431578983e-16
0
LINE
5
167
100
AcDbEntity
8
0
100
AcDbLine
10
132.46305654625758
20
478.06146578178209
30
5.6260764254821983e-16
11
132.77803657631651
21
478.51778582916091
31
6.1849073108915992e-16
0
LINE
5
168
100
AcDbEntity
8
0
100
AcDbLine
10
136.2211766062245
20
478.51778582916091
30
6.1849073108915992e-16
11
135.80615661721055
21
478.88546566352596
31
6.6351852431578194e-16
0
LINE
5
169
100
AcDbEntity
8
0
100
AcDbLine
10
132.26643655876956
20
474.44217972144907
30
1.193729336496828e-16
11
132.46305654625758
21
473.92374567375606
31
5.5883073942055358e-17
0
LINE
5
170
100
AcDbEntity
8
0
100
AcDbLine
10
132.19960663895449
20
476.99260572776603
30
4.317100381595142e-16
11
132.19960663895449
21
474.99260572776586
31
1.8678067833003129e-16
0
CIRCLE
5
171
100
AcDbEntity
8
0
100
AcDbCircle
10
42.698999999999856
20
316.19999999979132
30
3.5527136788005009e-14
40
2.2000000000000002
0
CIRCLE
5
172
100
AcDbEntity
8
0
100
AcDbCircle
10
173.69899999999998
20
316.19999999979149
30
3.5527136788004984e-14
40
2.2000000000000002
0
CIRCLE
5
173
100
AcDbEntity
8
0
100
AcDbCircle
10
184.79899999996857
20
230.03299999979163
30
8.160668765022297e-14
40
2.2000000000000002
0
CIRCLE
5
174
100
AcDbEntity
8
0
100
AcDbCircle
10
184.79899999996886
20
93.365999999791541
30
9.8343568060130123e-14
40
2.2000000000000002
0
CIRCLE
5
175
100
AcDbEntity
8
0
100
AcDbCircle
10
2.7474449999999706
20
338.19454800000005
30
0
40
1.359154000000018
0
CIRCLE
5
176
100
AcDbEntity
8
0
100
AcDbCircle
10
8.5474449999999713
20
338.19454800000005
30
0
40
1.359154000000018
0
CIRCLE
5
177
100
AcDbEntity
8
0
100
AcDbCircle
10
2.7474449999999706
20
228.19454800000003
30
0
40
1.359154000000018
0
CIRCLE
5
178
100
AcDbEntity
8
0
100
AcDbCircle
10
8.5474449999999713
20
228.19454800000003
30
0
40
1.359154000000018
0
CIRCLE
5
179
100
AcDbEntity
8
0
100
AcDbCircle
10
2.7474449999999706
20
145.19454800000003
30
0
40
1.359154000000018
0
CIRCLE
5
180
100
AcDbEntity
8
0
100
AcDbCircle
10
8.5474449999999713
20
145.19454800000003
30
0
40
1.359154000000018
0
CIRCLE
5
181
100
AcDbEntity
8
0
100
AcDbCircle
10
2.7474449999999706
20
79.194548000000012
30
0
40
1.359154000000018
0
CIRCLE
5
182
100
AcDbEntity
8
0
100
AcDbCircle
10
8.5474449999999713
20
79.194548000000012
30
0
40
1.359154000000018
0
CIRCLE
5
183
100
AcDbEntity
8
0
100
AcDbCircle
10
182.74744499999997
20
277.194548
30
0
40
1.359154000000018
0
CIRCLE
5
184
100
AcDbEntity
8
0
100
AcDbCircle
10
188.54744499999995
20
277.194548
30
0
40
1.359154000000018
0
CIRCLE
5
185
100
AcDbEntity
8
0
100
AcDbCircle
10
182.74744499999997
20
208.194548
30
0
40
1.359154000000018
0
CIRCLE
5
186
100
AcDbEntity
8
0
100
AcDbCircle
10
188.54744499999995
20
208.194548
30
0
40
1.359154000000018
0
CIRCLE
5
187
100
AcDbEntity
8
0
100
AcDbCircle
10
188.54744499999995
20
145.194548
30
0
40
1.359154000000018
0
CIRCLE
5
188
100
AcDbEntity
8
0
100
AcDbCircle
10
182.74744499999997
20
145.194548
30
0
40
1.359154000000018
0
CIRCLE
5
189
100
AcDbEntity
8
0
100
AcDbCircle
10
182.74744499999997
20
69.194547999999983
30
0
40
1.359154000000018
0
CIRCLE
5
190
100
AcDbEntity
8
0
100
AcDbCircle
10
188.54744499999995
20
69.194547999999983
30
0
40
1.359154000000018
0
CIRCLE
5
191
100
AcDbEntity
8
0
100
AcDbCircle
10
182.74744499999997
20
24.194547999999976
30
0
40
1.359154000000018
0
CIRCLE
5
192
100
AcDbEntity
8
0
100
AcDbCircle
10
188.54744499999995
20
24.194547999999976
30
0
40
1.359154000000018
0
CIRCLE
5
193
100
AcDbEntity
8
0
100
AcDbCircle
10
132.74744499999994
20
8.9945479999999378
30
0
40
1.3591540000000182
0
CIRCLE
5
194
100
AcDbEntity
8
0
100
AcDbCircle
10
132.74744499999994
20
3.1945479999999549
30
0
40
1.3591540000000182
0
ENDSEC
0
SECTION
2
OBJECTS
0
DICTIONARY
5
C
100
AcDbDictionary
3
ACAD_GROUP
350
D
3
ACAD_MLINESTYLE
350
17
0
DICTIONARY
5
D
100
AcDbDictionary
0
DICTIONARY
5
1A
330
C
100
AcDbDictionary
0
DICTIONARY
5
17
100
AcDbDictionary
0
ENDSEC
0
EOF
